# xmcd
# 
# Track frame offsets:
#     150
#     29980
#     52180
#     78788
#     104873
#     128884
#     138757
#     163100
#     186339
#     215378
# 
# Disc length: 3243
# 
# Revision: 1
# Processed by: cddbd v1.5.2PL0 Copyright (c) Steve Scherf et al.
# Submitted via: BonkEnc v1.0.8
# 
DISCID=970ca90a
DTITLE=Olivier Ker Ourio - Ralph Towner - Heiri Kaenzig - Siroko
DYEAR=2005
DGENRE=Contemporary Jazz
TTITLE0=Bellydancing
TTITLE1=Tramonto
TTITLE2=Siroko
TTITLE3=Seascape
TTITLE4=Goodbye Pork Pie Hat
TTITLE5=Fun Key
TTITLE6=Elm
TTITLE7=Payanké
TTITLE8=Everybody's song but my own
TTITLE9=Syracuse
EXTD=YEAR: 2005
EXTT0=
EXTT1=
EXTT2=
EXTT3=
EXTT4=
EXTT5=
EXTT6=
EXTT7=
EXTT8=
EXTT9=
PLAYORDER=
